# xmcd
#
# Track frame offsets: 
#        150
#        13760
#        27565
#        42475
#        55725
#        67360
#        81817
#        97355
#        111057
#        124735
#
# Disc length: 1845 seconds
#
# Revision: 0
# Processed by: cddbd v1.5.1PL0 Copyright (c) Steve Scherf et al.
# Submitted via: ExactAudioCopy v0.95a5
#
DISCID=9107330a
DTITLE=Various Artist - Blues Roots Volume One
DYEAR=2000
DGENRE=
TTITLE0=Sonny Boy Williamson/Good Morning, School Girl
TTITLE1=Tampa Red/When Things Go Wrong With You (It Hurst Me Too)
TTITLE2=Lonnie Johnson/He's a Jelly Roll Baker
TTITLE3=Memphis Minnie with The Memphis Jug Band/Bumble Bee Blues
TTITLE4=Blind Willie McTell/Statesboro Blues
TTITLE5=Leadbelly/Alberta
TTITLE6=Lil Green/Romance in the Dark
TTITLE7=Big Boy Broonzy/Sun Gonna Shine in My Door Someday
TTITLE8=Sleepy John Estes/Milk Cow Blues
TTITLE9=Robert Lee McCoy/Freight Train Blues
EXTD=
EXTT0=
EXTT1=
EXTT2=
EXTT3=
EXTT4=
EXTT5=
EXTT6=
EXTT7=
EXTT8=
EXTT9=
PLAYORDER=
